<?xml version="1.0" encoding="utf-8"?>
<!-- Generator: Adobe Illustrator 22.1.0, SVG Export Plug-In . SVG Version: 6.00 Build 0)  -->
<svg version="1.1" id="Layer_1" xmlns="http://www.w3.org/2000/svg" xmlns:xlink="http://www.w3.org/1999/xlink" x="0px" y="0px"
	 viewBox="0 0 410 64" style="enable-background:new 0 0 410 64;" xml:space="preserve">
<style type="text/css">
	.st0{fill:#FFFFFF;}
	.st1{fill:#FF860E;}
</style>
<g>
	<g>
		<path class="st0" d="M13.3,14.8c6.4,0,13.9,0.9,17,2v46.5h-9.8V45.2c-2,1.7-4.5,2.3-7.2,2.3c-9.2,0-11.9-5.7-11.9-16.7
			C1.4,19.4,5.8,14.8,13.3,14.8z M15.5,40.2c2,0,3.2-0.2,5-1.2v-17h-4.9c-4.2,0-4.3,5-4.3,8.7C11.3,36.9,11.4,40.2,15.5,40.2z"/>
		<path class="st0" d="M34.7,15.1h9.8v21c0,2.9,1.1,3.8,2.8,3.8c2.9,0,4.5-0.8,6.2-2.5V15.1h9.8V47h-8.1l-1.8-3.3
			c-3,1.8-4.7,3.8-9.5,3.8c-7.8,0-9.4-5.2-9.4-11.5C34.7,36,34.7,15.1,34.7,15.1z"/>
		<path class="st0" d="M82.6,14.8c11.1,0,14.7,4,14.7,16.7c0,11.8-3.4,15.8-14.7,15.8c-11.1,0-14.7-4.4-14.7-15.8
			C67.8,18.5,71.7,14.8,82.6,14.8z M82.6,39.7c4.1,0,4.9-0.6,4.9-8.2c0-8-0.6-9.1-4.9-9.1c-4.3,0-4.9,1.1-4.9,9.1
			C77.7,38.9,78.7,39.7,82.6,39.7z"/>
		<path class="st0" d="M100.1,17l4.9-2l1.5-8.9h8.3v8.9h6.3v7.1h-6.3v11.6c0,4.5,1,5.4,2.5,6.1c0,0,3.1,1.3,3.5,1.3V47h-8.1
			c-4.8,0-7.8-3-7.8-11.4V22.2h-4.9L100.1,17L100.1,17z"/>
		<path class="st0" d="M138.2,14.9c9.8,0,14,1.2,14,11.7c0,6.1-3.4,8.2-9.1,8.2h-8.9c0,5.1,2.5,4.9,7,4.9c4.6,0,6,0,10.5-0.7v6.5
			c-4.4,1.8-11.8,1.7-16.8,1.7c-8.1,0-10.5-5-10.5-16.4C124.2,17.4,128,14.9,138.2,14.9z M140.1,28.2c1.4,0,2.2-0.8,2.2-2.2
			c0-3.2-0.4-4-3.5-4c-3.6,0-4.8,0.3-4.7,6.2L140.1,28.2L140.1,28.2z"/>
		<path class="st0" d="M155.3,23.6c0-4.9,2.1-8.8,8.3-8.8c7.2,0,15.3,0,17.5,1.9v6h-14c-1.5,0-1.9,0.4-1.9,1.7v1
			c0,1.5,0.9,1.6,1.9,1.6h6.9c6.4,0,8.7,3.7,8.7,8.4v3.4c0,6.5-4,8.6-7.8,8.6c-7.2,0-16.1,0-18.2-2v-6h14.6c0.8,0,1.6-0.2,1.6-1.6
			v-1c0-1.1-0.3-1.6-1.6-1.6h-6.7c-5.6,0-9.2-2.6-9.2-8.8L155.3,23.6L155.3,23.6z"/>
	</g>
</g>
<path class="st1" d="M213.9,14.8c10.2,0,13.1,5.6,11.2,16.8c-1.9,11.8-5.5,15.6-15.8,15.6c-10.4,0-13.5-4.5-11.7-15.9
	C199.7,18.3,203.8,14.8,213.9,14.8z M209.5,43.8c6.8,0,10.4-1.3,12.2-12.3c1.8-11.2-1.1-13.2-8.2-13.2c-6.9,0-10.4,1.2-12.4,13.2
	C199.3,42.6,202.8,43.8,209.5,43.8z"/>
<path class="st1" d="M234.6,15.1h2.4l0.5,3.7c4-2.2,8-4.3,12.9-4.3c6.4,0,9.1,4.9,8.2,10.2L255,47h-3.4l3.5-22.2
	c0.7-4.2-1.5-6.8-5.3-6.8c-5,0-7.8,1.2-12.7,3.5L233,47h-3.4L234.6,15.1z"/>
<g>
	<path class="st0" d="M275.2,43.5c-2-2.5-2.9-6.7-2.9-12.6c0-4.2,0.4-7.5,1.1-10c0.8-2.5,2-4.3,3.8-5.5c1.8-1.2,4.2-1.8,7.4-1.8
		c2.5,0,5.1,0.5,7.8,1.4V0.4H303V47h-8.9l-1.6-3c-1.2,1-2.5,1.8-4,2.5s-2.9,0.9-4.5,0.9C280.1,47.3,277.2,46.1,275.2,43.5z
		 M292.4,37.4V22.6c-1.5-0.8-3-1.2-4.3-1.2c-1.4,0-2.4,0.2-3.2,0.7c-0.7,0.5-1.3,1.3-1.6,2.6c-0.3,1.3-0.5,3.1-0.5,5.6
		c0,2.4,0.2,4.2,0.5,5.4c0.3,1.2,0.8,2,1.5,2.5c0.7,0.4,1.7,0.7,3,0.7C289.4,38.9,291,38.4,292.4,37.4z"/>
	<path class="st0" d="M312.4,45.7c-2.2-1.1-3.8-2.8-4.8-5.2c-1-2.4-1.5-5.7-1.5-9.9c0-4.4,0.5-7.9,1.5-10.3c1-2.4,2.6-4.1,4.8-5.1
		c2.2-1,5.2-1.5,9.1-1.5c3.9,0,6.9,0.5,9.1,1.5c2.2,1,3.8,2.7,4.8,5.2c1,2.4,1.5,5.8,1.5,10.2c0,4.3-0.5,7.7-1.4,10.1
		c-1,2.4-2.5,4.1-4.8,5.2c-2.2,1-5.3,1.6-9.2,1.6C317.6,47.3,314.6,46.7,312.4,45.7z M324.4,38.4c0.6-0.4,1.1-1.1,1.4-2.3
		c0.3-1.2,0.5-3.1,0.5-5.6c0-2.5-0.2-4.4-0.5-5.6c-0.3-1.2-0.8-2-1.4-2.3c-0.7-0.4-1.6-0.5-3-0.5s-2.3,0.2-3,0.5
		c-0.6,0.4-1.1,1.1-1.4,2.3c-0.3,1.2-0.5,3-0.5,5.6c0,2.6,0.2,4.4,0.5,5.6c0.3,1.2,0.8,2,1.4,2.3c0.6,0.4,1.6,0.5,2.9,0.5
		C322.8,38.9,323.8,38.7,324.4,38.4z"/>
	<path class="st0" d="M340.1,14.2h8.7l1.8,3.2c1.2-1,2.7-1.9,4.5-2.7c1.8-0.8,3.6-1.1,5.3-1.1c3.8,0,6.5,1.1,8,3.2
		c1.5,2.1,2.2,5,2.2,8.8V47h-10.6V27c0-2.6-1.3-3.9-3.8-3.9c-2,0-3.8,0.7-5.6,2.1V47h-10.6V14.2z"/>
	<path class="st0" d="M374.6,38.9h34.1v8.4h-34.1V38.9z"/>
</g>
</svg>
