<svg id="Layer_1" data-name="Layer 1" xmlns="http://www.w3.org/2000/svg" viewBox="0 0 414.11 85.93"><defs><style>.cls-1{fill:#fff;}.cls-2{fill:#ff860e;}.cls-3{fill:none;}.cls-4{fill:#ffbc80;}</style></defs><title>qodon-trumpface</title><path class="cls-1" d="M13.32,36.69c6.36,0,13.87.92,17,2V85.1H20.49V67.16a10.6,10.6,0,0,1-7.17,2.34c-9.18,0-11.89-5.67-11.89-16.68C1.43,41.3,5.82,36.69,13.32,36.69Zm2.16,25.4a8.94,8.94,0,0,0,5-1.23v-17H15.57c-4.21,0-4.3,5-4.3,8.68C11.27,58.85,11.43,62.09,15.48,62.09Z"/><path class="cls-1" d="M34.73,37.05h9.84v21c0,2.88,1.08,3.78,2.83,3.78a7.59,7.59,0,0,0,6.22-2.52V37.05h9.84V68.91H55.4l-1.77-3.27c-3,1.83-4.65,3.81-9.51,3.81-7.8,0-9.39-5.19-9.39-11.55Z"/><path class="cls-1" d="M82.56,36.75c11,0,14.71,4,14.71,16.68,0,11.82-3.43,15.78-14.71,15.78-11.1,0-14.71-4.38-14.71-15.78C67.85,40.41,71.67,36.75,82.56,36.75Zm0,24.86c4.1,0,4.88-.57,4.88-8.19,0-8-.6-9.09-4.88-9.09s-4.87,1.09-4.87,9.09C77.69,60.8,78.72,61.61,82.56,61.61Z"/><path class="cls-1" d="M100.05,39l4.86-2,1.53-8.88h8.31V37h6.33v7.14h-6.33V55.71c0,4.5,1,5.43,2.48,6.09a33.24,33.24,0,0,0,3.54,1.26v5.88H112.7c-4.75,0-7.78-3-7.78-11.43V44.13h-4.86V39Z"/><path class="cls-1" d="M138.17,36.81c9.84,0,14,1.17,14,11.73,0,6.06-3.36,8.22-9.12,8.22h-8.94c0,5.11,2.46,4.9,7,4.9a54.69,54.69,0,0,0,10.5-.65v6.51c-4.36,1.78-11.82,1.68-16.8,1.68-8.1,0-10.5-5-10.5-16.38C124.25,39.33,128,36.81,138.17,36.81Zm1.89,13.31A2,2,0,0,0,142.31,48c0-3.19-.35-4-3.5-4-3.58,0-4.81.33-4.72,6.18h6Z"/><path class="cls-1" d="M155.33,45.57c0-4.92,2.1-8.82,8.28-8.82,7.21,0,15.28,0,17.5,1.86v6h-14c-1.54,0-2,.38-2,1.69v1c0,1.54.85,1.58,2,1.58H174c6.39,0,8.7,3.73,8.7,8.41v3.39c0,6.54-4,8.58-7.8,8.58-7.17,0-16,0-18.24-2v-6H171.2c.76,0,1.65-.23,1.65-1.58v-1c0-1.06-.27-1.63-1.65-1.63h-6.69c-5.64,0-9.18-2.62-9.18-8.8V45.57Z"/><path class="cls-2" d="M213.92,36.75c10.18,0,13.06,5.6,11.22,16.82-1.94,11.76-5.46,15.64-15.82,15.64s-13.46-4.52-11.66-15.92C199.69,40.27,203.77,36.75,213.92,36.75Zm-4.46,29c6.75,0,10.39-1.3,12.23-12.33s-1.1-13.23-8.19-13.23c-6.88,0-10.41,1.24-12.39,13.23C199.29,64.52,202.8,65.75,209.46,65.75Z"/><path class="cls-2" d="M234.63,37.05H237l.48,3.72c4-2.16,8-4.26,12.88-4.26,6.36,0,9.06,4.92,8.22,10.2L255,68.91h-3.45l3.54-22.2c.66-4.22-1.52-6.75-5.33-6.75-5,0-7.79,1.22-12.71,3.5l-4,25.45H229.6Z"/><path class="cls-1" d="M273.22,65.46q-2.93-3.81-2.93-12.6a36,36,0,0,1,1.13-10,9.71,9.71,0,0,1,3.78-5.52,13.28,13.28,0,0,1,7.42-1.77,24.11,24.11,0,0,1,7.8,1.4V22.36H301V68.91h-8.91l-1.65-3a15.52,15.52,0,0,1-4,2.47,11.15,11.15,0,0,1-4.45.94Q276.15,69.27,273.22,65.46Zm17.2-6.13V44.57a9.51,9.51,0,0,0-4.27-1.16,5.89,5.89,0,0,0-3.17.7,4.23,4.23,0,0,0-1.61,2.59,22.47,22.47,0,0,0-.52,5.61,24,24,0,0,0,.45,5.4,4,4,0,0,0,1.5,2.47,5.5,5.5,0,0,0,3,.67A8,8,0,0,0,290.42,59.33Z"/><path class="cls-1" d="M310.4,67.59a9.66,9.66,0,0,1-4.82-5.24,26.63,26.63,0,0,1-1.49-9.91c0-4.44.49-7.86,1.49-10.28A9.24,9.24,0,0,1,310.37,37a28.29,28.29,0,0,1,18.21,0,9.37,9.37,0,0,1,4.82,5.19,27.9,27.9,0,0,1,1.49,10.19,28.21,28.21,0,0,1-1.43,10.06,9.18,9.18,0,0,1-4.76,5.15,22.23,22.23,0,0,1-9.24,1.56A21,21,0,0,1,310.4,67.59Zm12.05-7.29A3.47,3.47,0,0,0,323.88,58a24.41,24.41,0,0,0,.46-5.59,24,24,0,0,0-.46-5.55,3.45,3.45,0,0,0-1.43-2.31,6.26,6.26,0,0,0-3-.55,6.07,6.07,0,0,0-3,.55,3.48,3.48,0,0,0-1.4,2.28,23.9,23.9,0,0,0-.46,5.58A24.36,24.36,0,0,0,315.1,58a3.45,3.45,0,0,0,1.43,2.31,6.09,6.09,0,0,0,2.93.55A6.26,6.26,0,0,0,322.45,60.3Z"/><path class="cls-1" d="M338.12,36.09h8.73l1.83,3.23a16.38,16.38,0,0,1,4.48-2.65,13.57,13.57,0,0,1,5.28-1.13q5.73,0,8,3.17c1.48,2.12,2.22,5,2.22,8.78V68.91H358.07v-20c0-2.6-1.28-3.91-3.84-3.91a8.53,8.53,0,0,0-5.55,2.14V68.91H338.12Z"/><path class="cls-1" d="M373.24,60.87h35.51v8.36H373.24Z"/><path class="cls-2" d="M74.94,584.54c-2,.2-4.06.88-6,.53-13.07-2.42-26.25-4.47-39.11-7.73-39.57-10-79-20.53-118.5-30.83a33.39,33.39,0,0,0-4.15-.54l-.75,1.15c3.12,3.78,6.27,7.52,9.35,11.34,11.49,14.27,23.1,28.44,34.34,42.91,3.13,4,5.32,8.83,7.61,13.44,1.91,3.84,1,7.25-2.17,10.36-9.1,8.79-18.21,17.59-26.94,26.75-5.34,5.61-4.84,6.21.92,11.44q21.46,19.49,42.64,39.28c3.11,2.92,5.43,6.69,8.12,10.07L-21,714.27c-1.65-.73-3.59-1.11-4.92-2.23-17.26-14.39-34.65-28.64-51.53-43.47-7.62-6.7-8.2-11.5-1.94-19.63,7.69-10,16.46-19.17,25.15-28.33,3-3.12,3.87-5.25.88-8.74Q-78.08,583-102.58,554c-2.07-2.43-3.67-2.36-5.32.51-4.58,7.93-9.51,15.67-13.77,23.78-.94,1.79-.41,5.2.73,7.1a186.28,186.28,0,0,1,22.47,56.43,171.46,171.46,0,0,1,3,56.65A65.84,65.84,0,0,1-97,705.35l-1.62.08c-.58-1.55-1.52-3.07-1.67-4.66-.73-7.61-1.66-15.24-1.75-22.88-.22-17.4-.94-34.74-6.93-51.27-2.66-7.31-6.52-14.19-9.95-21.22a7.7,7.7,0,0,0-4-3.55c-.14,1.85-.27,3.7-.43,5.55a189,189,0,0,1-27.91,84.1,35.53,35.53,0,0,1-2.34,3.24c-4.61,5.82-8.49,6.13-12.71.16-8.26-11.69-16.09-23.69-24.07-35.6-1.92-2.86-3.67-5.84-6.08-9.68-4.56,5.92-9,10.86-12.3,16.48-1.09,1.86.2,5.86,1.53,8.26,3.46,6.26,7.54,12.17,11.36,18.23.36.56.65,1.17,1,1.75,8.35,15.06,5.64,21.48-11.13,25.08-16.41,3.52-32.53,2.48-47.77-5.06-7.69-3.81-8.29-6.89-3.91-14.3,3.89-6.6,8-13.08,11.47-19.91,4.1-8.14,3.1-12.31-3-18.92a63.33,63.33,0,0,1-6.57-8.15c-2.18-3.32-4-3-6-.05q-12.19,18.27-24.35,36.57c-2.11,3.19-3.76,6.73-6.17,9.67-4.44,5.43-9.74,4.85-13-1.32-12.59-23.76-21.2-48.85-24.69-75.59-.29-2.19-.86-4.33-1.59-7.9-5.05,8.55-6.63,16.59-7.05,24.62-.73,13.95-.49,27.95-.75,41.92-.18,9.38-.52,18.76-.78,28.15l-2.25.38a25.6,25.6,0,0,1-2.07-4.77A174.79,174.79,0,0,1-347,647.1a182.31,182.31,0,0,1,18.17-59.45,7.54,7.54,0,0,0-.15-6.29c-9.4-14.91-19.09-29.64-28.72-44.41a9.14,9.14,0,0,0-1.61-1.45,10.54,10.54,0,0,0-1.89,1.67c-13.13,19.86-26.19,39.78-39.38,59.6-2.73,4.11-2.07,6.71,1.64,10.09,10.46,9.52,20.76,19.26,30.45,29.54,6.11,6.48,6.34,9.44.27,16.07-16.17,17.68-33,34.72-49.64,52-.62.65-1.65.89-3.72.75.76-2.32,1-5,2.34-6.91,6.72-9.91,13.47-19.81,20.67-29.37,5.81-7.7,12.11-15.06,18.52-22.29,2.95-3.33,2.48-5.66-.49-8.4-8.69-8-17-16.45-26.05-24.08-6.51-5.5-8.42-11.79-4.66-19,6.24-11.9,12.88-23.64,20-35,4.78-7.59,10.78-14.4,16.19-21.59a48.71,48.71,0,0,0,2.46-4.34c-3.09.42-5.14.57-7.13,1-28.87,6-57.66,12.5-86.63,18-12.88,2.45-26.11,3-39.19,4.33-1.85.18-3.78-.36-5.68-.56l-.37-1.66a53.2,53.2,0,0,1,6.87-2.56c18.51-4.25,37.13-8.07,55.56-12.65,25.55-6.34,51-13.24,76.45-19.83,3.4-.88,4.75-2.56,3.8-6.12-1.75-6.59-3.36-13.23-4.93-19.88-.73-3.07-2.64-4.19-5.66-4.59a82.25,82.25,0,0,1-30.95-10.76c-4-2.36-4.19-4.34-1.67-8.28,4.82-7.53,8.93-15.52,13.18-23.41,1.48-2.75,1.07-4.72-2.54-6-7.21-2.52-10.63-8.8-13.31-15.39-5.52-13.58-7.72-27.93-8.77-42.41-.79-11-1-22-1-33,0-3.81-1.33-6-4.32-8.19a149,149,0,0,1-14.74-12.65c-3.39-3.28-3.7-6.83-.24-10.95,8.27-9.86,11.55-22,14.47-34.21,5-20.73,9.16-41.66,14.7-62.23C-401.6,173.6-376,133.32-333.46,105c24.11-16.07,51.17-23.8,79.66-27.11a185.74,185.74,0,0,1,20.36-1.73c54.33-.32,103.66,14.27,147.21,47.86,35.62,27.47,72,53.94,111.12,76.43,20.22,11.64,40.63,23,63.58,28.61,9.45,2.32,9.9,2.52,7.71,12.37C90.83,265.53,75.64,281.26,52.94,290c-20,7.66-40.79,7.36-61.67,4.85-6.52-.78-6.84-.51-5.95,6.21,2.3,17.37,9.09,32.62,21.49,45.21,4.22,4.29,4.29,5.78.35,10.61A48.21,48.21,0,0,1-24.9,374.48c-5.46.71-6.36,3.09-7.08,7.92-2,13.29-4,26.68-7.56,39.61-3.11,11.33-8.88,21.59-20.42,27.17-1.16.56-2.17,3.49-1.77,4.91,4,14.4,8.17,28.79,12.75,43,1.76,5.45,1.68,6.79-3.91,8.2-10.42,2.62-21,4.15-31.68,2.28-2.89-.51-4.35.52-5.25,3.15-1.78,5.2-3.45,10.47-5.66,15.49-1.93,4.4-.65,6.22,3.76,7.48,25.31,7.25,50.56,14.7,75.84,22.07q42,12.26,83.94,24.53c2.42.71,4.74,1.76,7.1,2.65C75.09,583.49,75,584,74.94,584.54ZM-304.29,247.73c.21-.46.41-.92.61-1.38-6.86-3.17-13.69-6.44-20.68-9.33-.6-.25-2.86,1.83-3.29,3.16-2.14,6.66-3.88,13.44-5.84,20.16-6.54,22.38-12.55,45-23.32,65.83-4.16,8.08-9.32,15.42-16.87,20.75-11.23,7.93-23.47,7.54-35.92,3.9-4.13-1.2-5.67,0-5.44,4,.77,14.11,1,28.29,2.55,42.32,1.16,10.43,4.33,20.59,11.27,29,6.6,8,14.78,9.16,23.36,3.5,1.17-.77,2.44-1.36,4.48-2.48.13,2.86.1,4.8.33,6.72,1.53,12.88,2.07,26,4.87,38.59,8,35.84,24.87,67.57,46.18,97.28,18.29,25.53,42.58,40.83,73.36,45.82,21.84,3.54,43.57,3.51,64.39-5.38,25.74-11,45.84-29,59.25-53.14,20.3-36.59,35.17-75.47,42.75-116.86.34-1.87.83-3.71,1.41-6.28a28.22,28.22,0,0,1,2.38,2.29c5,6.43,10.17,7.53,16.69,2.79A26.2,26.2,0,0,0-54,430.71c3.26-6.12,6.43-12.53,8.12-19.2,2.64-10.45,4.18-21.19,5.76-31.87.24-1.64-1.47-4.84-2.88-5.25-13.69-4-21-14.08-26.2-26.32-5.49-12.87-7.77-26.48-9.27-40.28-.21-2-.76-3.87-1.44-7.23-1.12,2.22-1.55,2.89-1.83,3.63-2.2,5.91-3.29,6.2-8.35,2.14-2.86-2.3-5.48-5-8.61-6.81a5.76,5.76,0,0,0-5.36.52c-6,5.59-5.91,5.72-13.3,1.82-.44-.23-.87-.48-1.31-.73-2.89-1.58-4.78-1.21-5,2.53-.08,1.16-.21,2.32-.36,3.48-.74,5.56-2.32,7-7.15,4.2-9.25-5.29-16.76-4.17-23.64,3.84-2.41,2.81-4.92,2.21-6.79-1-3.18-5.48-6.5-10.88-9.58-16.41-.64-1.16-1.13-3.37-.52-4a6,6,0,0,1,4.33-1.4c9.07.57,9.07.65,8.13-8.67a10.87,10.87,0,0,1-.14-1.49c.1-3.85-1.89-4.91-5.56-5.25-17.41-1.64-34.78-3.61-52.17-5.46-1.57-.16-3.15-.28-4.76-.42-.2,7.54.94,8.85,7.52,9.18,2.66.13,5.34.13,8,.43,4,.46,5.24,2.48,3,5.66-5.48,7.76-11.21,15.34-16.91,22.94-2.25,3-4.45,2.5-6.23-.53a66,66,0,0,1-4.75-8.78c-1.88-4.76-4.71-6-9.3-3.75-4,2-6.58.54-8.22-3.51-1.31-3.23-3.09-6.27-4.57-9.44-1.22-2.62-2.74-2.85-5.13-1.31-7.76,5-7.8,4.95-13.43-2.72a29.44,29.44,0,0,1-2.06-2.82c-1.85-3.28-4.09-3.67-7.42-1.82-7.43,4.12-15,8-22.62,11.76-1.15.57-3.45.82-4,.17a5.54,5.54,0,0,1-.82-4.38,95.09,95.09,0,0,1,3.78-11.9c1.23-3.11.61-5.36-1.73-7.59-3.37-3.22-6.68-6.53-9.78-10-1-1.09-1.2-2.85-1.77-4.3,1.58-.59,3.17-1.69,4.75-1.67A80,80,0,0,1-304.29,247.73Zm318,1L13,246.52a56.93,56.93,0,0,1,5.55-3.64c6.08-3.11,12.32-5.91,18.32-9.16,1.86-1,3.14-3.09,4.69-4.67-1.66-1.23-3.17-2.8-5-3.64A391.42,391.42,0,0,1-47,173.8C-71.56,154-96.6,135-124.45,120-148.21,107.17-173,97.31-200,93.68c-27.56-3.7-54.43-.74-81.18,6.14-23.92,6.16-45.56,16.4-62.56,34.55a343.07,343.07,0,0,0-29.16,35.42C-389,192.38-400,217.47-407,244.38c-1,4-.12,5.87,3.88,6.7,5,1.06,10,2.72,15.06,3.62,11.8,2.08,23.6,4.24,35.49,5.62,7.49.86,8.21-.18,9.67-7.4,1-5.06,1.39-10.29,2.81-15.22,1.52-5.21-.55-8.09-4.22-11.5-7.91-7.36-15.33-15.27-22.61-23.25-2.65-2.91-4.33-6.68-6.45-10.06l1.68-1.82c23.35,19.78,48.69,36,78.4,46.1a33.27,33.27,0,0,1,0-4.71c.33-2,.91-3.89,1.39-5.83,1.84.87,4,1.37,5.46,2.66,5.26,4.61,10.21,9.57,15.43,14.24,4.71,4.22,7.45,4.09,12-.18,5.37-5,6.23-4.86,9.89,1.44,2.07,3.56,3.69,7.16,8.63,8.18a582.36,582.36,0,0,0,100.64,12c3.44.11,5.54-.8,6.75-4.35,1.79-5.22,4.14-5.48,7.61-1.29,5.78,7,13.44,7.66,20.59,2.08,1.1-.86,3.82-1.61,4.22-1.12,3.95,4.82,8.69,2.77,12.85,1.26,13.93-5,27.69-10.56,41.53-15.84,2.37-.9,4.84-1.49,7.27-2.23l.7,1.42c-8.45,9.07-20.11,14.18-30.68,22.36,4.19,1.75,6.91,2.95,9.68,4,29,11.24,58.85,17.3,90,12.82,18.46-2.65,35.13-9.23,46.81-24.89a50.65,50.65,0,0,0,2.89-4.89l-.74-1.22-11.56,3.05L67.59,255a40.85,40.85,0,0,0,3.78-5,22.46,22.46,0,0,0,1.43-4.89c-1.57,0-3.28-.32-4.67.19-6.41,2.34-12.71,5-19.11,7.38a34,34,0,0,1-5.82,1.08l-.75-1.47,12.67-12.32-.79-1.49c-2.31.46-4.68.74-6.93,1.42-8.12,2.47-16.17,5.21-24.34,7.55C20.05,248.26,16.8,248.3,13.66,248.73ZM-317,597.4c-10.19,19.47,2.45,73.76,17.72,87.17a13.86,13.86,0,0,0,2.15-1.89q18.19-24.15,36.3-48.36c3.21-4.31,2.92-4.82-2.3-7-18.28-7.46-35.58-16.68-51.32-28.68A15.2,15.2,0,0,0-317,597.4Zm118,32.93a49.64,49.64,0,0,0,2.53,5c9.31,13.78,18.58,27.59,28.1,41.22,2.09,3,5.14,5.33,7.76,8,2.28-3.38,5.09-6.51,6.75-10.17,10.25-22.48,15.3-46.36,18.34-70.73.19-1.54,0-3.12,0-6C-154.62,613.73-174.93,625.17-199,630.33ZM-301.52,276.8l1.88.71c5.41-2.77,10.84-5.53,16.24-8.33,8.15-4.23,8.14-4.25,13.5,3.06,5.06,6.89,5.06,6.89,11.75,2.07,4-2.85,5.41-2.54,7.74,1.87a85.46,85.46,0,0,1,4.37,9c1.7,4.41,4.13,6.11,8.74,3.77,3.85-1.95,6.61-.63,8.45,3.29,1.57,3.35,3.51,6.53,5.92,10.93l12.14-16.61c-3.21-.34-5-.78-6.72-.66-5.38.4-8.44-1.74-9.39-7.24-.62-3.59-2.08-7-2.89-10.59-.75-3.33-2.55-4.56-5.76-3.49-9,3-8.45,0-11.94-5.55-.71-1.13-1.33-2.31-2-3.46-4.76-8.22-4.87-8.33-11.75-2-2.88,2.68-5.05,2.4-7.67-.15-4.41-4.3-8.95-8.47-13.48-12.64a45.62,45.62,0,0,0-4.1-2.87c.6,5.12,1.05,8.86,1.47,12.61.39,3.38-1.06,5.14-4.54,4.8-3.15-.32-6.27-.89-9.42-1.16-2.15-.18-4.34,0-6.51,0l-1.17.91C-297.67,260.59-296.2,267.89-301.52,276.8ZM-163,299.24c2.85,10.45,5,11.37,12.63,5.16,3.5-2.86,6.59-4.25,11.25-2.14,8.87,4,9,3.74,10.5-5.85.58-3.89,2.29-5.46,6.1-3.5a54.13,54.13,0,0,1,6.15,3.31c3.89,2.68,6.71,2.23,9.61-1.74,3.9-5.33,4.47-5.15,9.86-.85,3,2.39,6.09,4.7,8.58,6.61,2.74-3,4.51-5.58,6.89-7.33,2.55-1.88,5.68-3,9.57-4.92-2.32-1.31-3.38-2-4.51-2.53-6.2-2.85-6.25-3-4.52-9.87.48-1.91.65-3.9,1-5.85l-1.31-.67c-2.71,2.36-5.43,4.7-8.12,7.08-7.6,6.71-8,6.61-11.53-2.69-.56-1.49-1.31-2.92-2-4.32-1,.21-1.62.15-1.94.43q-1.89,1.62-3.62,3.41c-8.28,8.63-7.43,8.43-14.33-.73-1.55-2.05-3.22-4-5.5-6.83-1.12,2.35-1.91,3.72-2.44,5.18-1.49,4.07-2.8,8.2-4.32,12.25-1.83,4.84-3.06,5.21-7.22,2.23-3.58-2.56-7.08-5.23-10.61-7.85l-1.32.67c.24,4.22.41,8.44.73,12.64.63,8.35.66,8.34-7.81,8.27A9.52,9.52,0,0,0-163,299.24Zm-194.4-.15c-.3-.11-.62-.34-.9-.29a3.84,3.84,0,0,0-1.39.52c-19.46,12.24-41,16.18-63.58,15.79-2.71,0-11.54,6.45-12.08,9.08a3.67,3.67,0,0,0,1.12,2.94c11.44,9.47,24.12,15.82,39.45,13s35.41-25,37.65-40.65C-357.09,299.37-357.28,299.23-357.37,299.09ZM-65,316.32l-1.88.94c1.1,6.3,1.7,12.74,3.4,18.87,7,25.49,28.61,35.25,52.61,24.1C-1.28,355.78-1.76,355.74-7,347c-4.15-6.91-8.72-9.82-17.13-10-14.48-.24-25.68-9.08-36.63-17.63C-62.15,318.33-63.58,317.35-65,316.32Zm-285.42-33-1.24-1.37a35.34,35.34,0,0,0-3.71.76c-15.41,4.91-31.23,6.39-47.32,5.61-3.88-.19-8.86-1.94-11.34-.18-2.66,1.89-2.89,7.12-4.34,10.83-1.24,3.16-.66,5.37,3,5.72,5.43.51,11,1.52,16.31.9,16.14-1.9,30.66-8.59,44.45-16.86C-352.8,287.61-351.79,285.13-350.4,283.29Zm4.2-14.42-1.17-1.37c-17.46,1.15-34.47-1.89-51.44-5.21-12-2.34-10.25-4.2-12.44,9-.57,3.42.38,5.09,3.84,6.17,19.64,6.17,38.55,2.31,57.25-4C-348.51,273-347.5,270.46-346.2,268.87Zm275.07,230c1-.09,3.52-.38,6-.49,4.28-.19,5.1-1.86,4-6.13-3.12-12.06-5.55-24.3-8.46-36.41-.43-1.78-2-3.3-3-4.94-1.08,1.47-2.7,2.8-3.15,4.45-2.69,9.79-5,19.67-7.62,29.48C-87,498.71-87,498.84-71.13,498.88Zm5.35-201.13c-1,6.95-.48,12.06,5.17,15.41,5.42,3.22,10.46,7.33,16.23,9.65,6.85,2.76,14.27,4.18,21.52,5.82,1.42.33,4-.45,4.66-1.56,1.68-2.77-3.15-11.09-6.48-11.65-13.18-2.25-25.07-7.6-36.21-14.81C-62.21,299.75-63.62,299-65.78,297.75Zm.37-5.25c13,6.29,25.53,10.37,38.89,11.81a3.87,3.87,0,0,0,3-1c1.87-2.45-.95-11-3.94-12q-18.27-6-36.63-11.73c-1-.31-2.33.39-3.51.62.52,1.11.77,2.87,1.59,3.2C-60.77,285.53-59.7,288.17-65.41,292.5Zm-314.53,186c-1.49-12.3-2.76-23.21-4.25-34.09-.11-.82-2.07-2.21-2.63-2-1.52.61-3.41,1.66-4,3q-5,11.91-9.28,24.11c-.46,1.31.38,4.25,1.39,4.69a131.27,131.27,0,0,0,15.5,5.47C-382.14,480-380.63,478.73-379.94,478.45Z"/><path class="cls-3" d="M393.54,61.64a5.38,5.38,0,0,0,.81.31A5.38,5.38,0,0,1,393.54,61.64Z"/><path class="cls-3" d="M398.08,61.78a2.64,2.64,0,0,1-.46.17A2.64,2.64,0,0,0,398.08,61.78Z"/><path class="cls-2" d="M397.3,62h0l.32-.09Z"/><path class="cls-2" d="M394.52,62l-.17,0Z"/><path class="cls-3" d="M383,36.22l0,0-.06,0,.06,0Z"/><path class="cls-3" d="M384.15,59c0,.44,0,.89,0,1.33s0,1.19-.05,1.78c0-.59,0-1.19.05-1.78S384.15,59.46,384.15,59Z"/><path class="cls-3" d="M389.23,58.43c-.06,0-.12.06-.18.15l-1.54,2.31,1.54-2.31C389.11,58.49,389.17,58.43,389.23,58.43Z"/><path class="cls-3" d="M393.57,62v0Z"/><path class="cls-1" d="M407.68,53.83l-.18,0c-2.5-.63-5-1.3-7.49-1.95l-.26,0-.05.07.59.72c.73.9,1.46,1.8,2.17,2.71a4.75,4.75,0,0,1,.48.85.53.53,0,0,1-.13.66c-.58.55-1.16,1.11-1.71,1.69-.34.35-.3.39.06.72q1.36,1.23,2.7,2.49a6.37,6.37,0,0,1,.51.63l-.09.1a1.23,1.23,0,0,1-.31-.14c-1.09-.91-2.19-1.81-3.26-2.75-.48-.42-.51-.72-.12-1.24s1-1.21,1.59-1.79c.19-.2.25-.33.06-.55l-3.11-3.66c-.14-.16-.24-.15-.34,0-.29.5-.6,1-.87,1.5a.55.55,0,0,0,0,.45,11.88,11.88,0,0,1,1.43,3.57,10.77,10.77,0,0,1,.18,3.58,3.43,3.43,0,0,1-.09.44h-.11a1.42,1.42,0,0,1-.1-.29,13.94,13.94,0,0,1-.11-1.45,9.84,9.84,0,0,0-.44-3.24,13.6,13.6,0,0,0-.63-1.34.5.5,0,0,0-.26-.23c0,.12,0,.24,0,.35A11.84,11.84,0,0,1,396,61a1.37,1.37,0,0,1-.15.21c-.29.37-.53.39-.8,0-.52-.74-1-1.5-1.52-2.25-.12-.18-.23-.37-.39-.62a10.9,10.9,0,0,0-.78,1,.74.74,0,0,0,.1.52c.22.39.48.77.72,1.15l.06.11a1.9,1.9,0,0,1,.29.84v0a.55.55,0,0,1-.16.38,1,1,0,0,1-.2.14,2.21,2.21,0,0,1-.37.14l-.26.07h16.14V54.89Z"/><path class="cls-1" d="M389.56,62.46c-.49-.24-.53-.44-.25-.91s.51-.82.72-1.25a.87.87,0,0,0-.19-1.2,3.48,3.48,0,0,1-.41-.52c-.07-.1-.13-.15-.2-.15s-.12.06-.18.15l-1.54,2.31a6.33,6.33,0,0,1-.39.61.44.44,0,0,1-.82-.08,13.92,13.92,0,0,1-1.56-4.78c0-.14-.06-.27-.1-.5a3.29,3.29,0,0,0-.45,1.56c0,.44,0,.88,0,1.32s0,.89,0,1.33,0,1.19-.05,1.78l-.14,0a1.6,1.6,0,0,1-.13-.3,11.17,11.17,0,0,1-.16-3.65,10.26,10.26,0,0,1,.42-1.92,12.58,12.58,0,0,1,.73-1.84.4.4,0,0,0,0-.2.38.38,0,0,0-.05-.19c-.59-.95-1.2-1.88-1.81-2.81a.33.33,0,0,0-.11-.09.58.58,0,0,0-.12.1c-.83,1.26-1.65,2.52-2.49,3.77-.17.26-.13.43.11.64.66.6,1.31,1.22,1.92,1.87.39.41.4.59,0,1-1,1.12-2.09,2.2-3.14,3.29,0,0-.1.06-.23.05a1.51,1.51,0,0,1,.14-.44c.43-.62.86-1.25,1.31-1.86s.77-.95,1.17-1.41c.19-.21.16-.35,0-.53-.55-.5-1.08-1-1.65-1.52a2.05,2.05,0,0,1-.25-.27.83.83,0,0,1,0-.93c.39-.75.81-1.5,1.27-2.21.3-.48.68-.91,1-1.37.05-.06.08-.14.16-.27a3.74,3.74,0,0,0-.46.06c-1.82.38-3.64.79-5.47,1.14-.82.15-1.66.19-2.48.27a1.37,1.37,0,0,1-.29,0l-.11,0V62.78h17.2l-.09,0-.14,0A4,4,0,0,1,389.56,62.46Z"/><path class="cls-2" d="M392.84,62.71a2.21,2.21,0,0,0,.37-.14,1,1,0,0,0,.2-.14.55.55,0,0,0,.16-.38v0a1.9,1.9,0,0,0-.29-.84l-.06-.11c-.24-.38-.5-.76-.72-1.15a.74.74,0,0,1-.1-.52,10.9,10.9,0,0,1,.78-1c.16.25.27.44.39.62.5.75,1,1.51,1.52,2.25.27.38.51.36.8,0A1.37,1.37,0,0,0,396,61a11.84,11.84,0,0,0,1.77-5.32c0-.11,0-.23,0-.35a.5.5,0,0,1,.26.23,13.6,13.6,0,0,1,.63,1.34,9.84,9.84,0,0,1,.44,3.24,13.94,13.94,0,0,0,.11,1.45,1.42,1.42,0,0,0,.1.29h.11a3.43,3.43,0,0,0,.09-.44,10.77,10.77,0,0,0-.18-3.58A11.88,11.88,0,0,0,398,54.3a.55.55,0,0,1,0-.45c.27-.51.58-1,.87-1.5.1-.18.2-.19.34,0L402.24,56c.19.22.13.35-.06.55-.55.58-1.1,1.16-1.59,1.79s-.36.82.12,1.24c1.07.94,2.17,1.84,3.26,2.75a1.23,1.23,0,0,0,.31.14l.09-.1a6.37,6.37,0,0,0-.51-.63q-1.33-1.26-2.7-2.49c-.36-.33-.4-.37-.06-.72.55-.58,1.13-1.14,1.71-1.69a.53.53,0,0,0,.13-.66,4.75,4.75,0,0,0-.48-.85c-.71-.91-1.44-1.81-2.17-2.71l-.59-.72.05-.07.26,0c2.5.65,5,1.32,7.49,1.95l.18,0-.68-.7-2.39-.7-4.8-1.4c-.28-.08-.36-.19-.24-.47s.25-.65.36-1a.26.26,0,0,1,.33-.2,4.87,4.87,0,0,0,2-.14c.35-.09.36-.18.25-.52-.29-.9-.56-1.81-.81-2.72a.34.34,0,0,1,.11-.31A2.52,2.52,0,0,0,403.11,44a19.49,19.49,0,0,0,.48-2.51c.05-.3.1-.45.45-.5a3.06,3.06,0,0,0,2-1.12c.25-.3.24-.4,0-.67a4.82,4.82,0,0,1-1.35-2.86c-.06-.42,0-.44.37-.39a7.94,7.94,0,0,0,3.9-.31,4.11,4.11,0,0,0,2.74-3.07c.14-.62.11-.63-.49-.78a15.64,15.64,0,0,1-4-1.81,62.52,62.52,0,0,1-7-4.83,14.59,14.59,0,0,0-9.31-3,11.22,11.22,0,0,0-1.29.11,11.34,11.34,0,0,0-5,1.71,12.45,12.45,0,0,0-5.14,7.42c-.35,1.3-.61,2.63-.93,3.94a5,5,0,0,1-.91,2.16.46.46,0,0,0,0,.7,10.08,10.08,0,0,0,.94.79.61.61,0,0,1,.27.52c0,.7,0,1.4.06,2.09a8.84,8.84,0,0,0,.56,2.68,1.48,1.48,0,0,0,.84,1c.23.08.25.21.16.38-.27.5-.53,1-.83,1.48-.16.25-.15.38.1.53a5.09,5.09,0,0,0,2,.68.36.36,0,0,1,.36.29c.1.42.2.84.31,1.26.06.22,0,.33-.24.38-1.61.42-3.22.86-4.84,1.26-1.16.29-2.34.53-3.51.8a2.6,2.6,0,0,0-.44.16l0,.1.07,0h0a1,1,0,0,0,.29,0c.82-.08,1.66-.12,2.48-.27,1.83-.35,3.65-.76,5.47-1.14a3.74,3.74,0,0,1,.46-.06c-.08.13-.11.21-.16.27-.34.46-.72.89-1,1.37-.46.71-.88,1.46-1.27,2.21a.83.83,0,0,0,0,.93,2.05,2.05,0,0,0,.25.27c.57.48,1.1,1,1.65,1.52.19.18.22.32,0,.53-.4.46-.8.93-1.17,1.41s-.88,1.24-1.31,1.86a1.51,1.51,0,0,0-.14.44c.13,0,.19,0,.23-.05,1.05-1.09,2.12-2.17,3.14-3.29.38-.42.37-.6,0-1-.61-.65-1.26-1.27-1.92-1.87-.24-.21-.28-.38-.11-.64.84-1.25,1.66-2.51,2.49-3.77a.58.58,0,0,1,.12-.1.33.33,0,0,1,.11.09c.61.93,1.22,1.86,1.81,2.81a.38.38,0,0,1,.05.19.4.4,0,0,1,0,.2,12.58,12.58,0,0,0-.73,1.84,10.26,10.26,0,0,0-.42,1.92,11.17,11.17,0,0,0,.16,3.65,1.6,1.6,0,0,0,.13.3l.14,0c0-.59,0-1.19.05-1.78s0-.89,0-1.33,0-.88,0-1.32a3.29,3.29,0,0,1,.45-1.56c0,.23.08.36.1.5a13.92,13.92,0,0,0,1.56,4.78.44.44,0,0,0,.82.08,6.33,6.33,0,0,0,.39-.61l1.54-2.31c.06-.09.12-.15.18-.15s.13,0,.2.15a3.48,3.48,0,0,0,.41.52.87.87,0,0,1,.19,1.2c-.21.43-.48.84-.72,1.25s-.24.67.25.91a4,4,0,0,0,.65.25l.14,0a4.67,4.67,0,0,0,2.23,0h0Zm4.2-7.25a15,15,0,0,1-1.16,4.47,3.77,3.77,0,0,1-.43.64,4.64,4.64,0,0,1-.49-.5c-.6-.86-1.19-1.74-1.77-2.61a1.58,1.58,0,0,1-.16-.32,9,9,0,0,0,4-2.07C397,55.26,397.05,55.36,397,55.46Zm4.71-7.05c.07.27,0,.38-.25.39l-.38,0c-1,0-1,0-.78-.89.17-.62.31-1.24.48-1.86a.9.9,0,0,1,.2-.28.84.84,0,0,1,.19.31C401.4,46.87,401.55,47.65,401.75,48.41Zm3.42-9.19c.33.56.36.56-.24.84a2.23,2.23,0,0,1-3.33-1.52,12.07,12.07,0,0,1-.22-1.2l.12-.06.27.2a3.93,3.93,0,0,0,2.32,1.11A1.14,1.14,0,0,1,405.17,39.22Zm-1-2.76a.26.26,0,0,1-.19.06,7.28,7.28,0,0,1-2.46-.75c.36-.27.29-.44,0-.57-.05,0-.07-.13-.1-.2s.16-.06.22,0l2.32.74A.72.72,0,0,1,404.13,36.46Zm.33,1.5a.33.33,0,0,1-.29.1,7.8,7.8,0,0,1-1.36-.37,6.34,6.34,0,0,1-1-.61c-.36-.21-.39-.53-.33-1a3.28,3.28,0,0,1,.31.18,6.19,6.19,0,0,0,2.29.93C404.26,37.26,404.57,37.79,404.46,38Zm-24.59-5.23A14.16,14.16,0,0,1,382,28a23,23,0,0,1,1.84-2.24,8,8,0,0,1,4-2.18A13.26,13.26,0,0,1,393,23.2a14,14,0,0,1,4.78,1.66,31.8,31.8,0,0,1,4.9,3.41,24.78,24.78,0,0,0,5.29,3.26,1.66,1.66,0,0,1,.31.23,1.65,1.65,0,0,1-.29.3l-1.16.58a2.12,2.12,0,0,0-.35.23l0,.14a3.82,3.82,0,0,0,.59-.09c.52-.15,1-.32,1.54-.48.14,0,.29-.06.44-.09l.05.1-.8.78.05.09a1.44,1.44,0,0,0,.36-.07c.41-.15.81-.32,1.21-.46a1,1,0,0,1,.3,0,1.4,1.4,0,0,1-.09.31,1.91,1.91,0,0,1-.24.32l0,.07.73-.19,0,.08a2.59,2.59,0,0,1-.19.31,4.2,4.2,0,0,1-3,1.57,11.09,11.09,0,0,1-5.69-.81l-.61-.25a16.17,16.17,0,0,0,1.94-1.42l-.05-.09-.46.14c-.87.34-1.74.69-2.62,1-.27.09-.57.22-.82-.08,0,0-.19,0-.26.07a.87.87,0,0,1-1.31-.14c-.22-.26-.36-.24-.48.09a.36.36,0,0,1-.42.27,35.87,35.87,0,0,1-6.37-.76c-.31-.06-.42-.29-.55-.51-.23-.4-.28-.41-.62-.09s-.47.27-.76,0-.65-.61-1-.9a1.27,1.27,0,0,0-.35-.17c0,.12-.06.24-.08.37a1.34,1.34,0,0,0,0,.3,15.25,15.25,0,0,1-4.95-2.92l-.11.11a3.49,3.49,0,0,0,.41.64c.46.51.93,1,1.43,1.47a.64.64,0,0,1,.26.73c-.09.31-.11.64-.17,1s-.14.52-.62.47c-.75-.09-1.49-.22-2.24-.36-.32-.05-.63-.16-.95-.22S379.81,33,379.87,32.73Zm16,2.92c0-.26,0-.53,0-.8l.08,0,.67.5c.26.18.34.16.46-.15l.27-.77c0-.09.08-.18.16-.33.14.18.25.3.34.43.44.58.39.6.91,0l.23-.22.12,0,.13.27c.22.59.24.6.72.17l.52-.45.08.05c0,.12,0,.24-.06.37-.11.43-.11.44.29.62l.28.16a3.66,3.66,0,0,0-.6.31,2.91,2.91,0,0,0-.44.47l-.54-.42c-.34-.28-.38-.29-.63,0a.37.37,0,0,1-.6.11l-.39-.21c-.24-.12-.35,0-.39.22-.09.61-.1.63-.66.37a.62.62,0,0,0-.72.14c-.48.39-.61.33-.79-.33l.11,0C396,36.18,396,36.18,395.91,35.65Zm-9.69-2.24.07-.06h.41l.6.08c.22,0,.31-.09.29-.31s-.06-.47-.1-.8a1.58,1.58,0,0,1,.26.19c.29.26.58.52.85.8a.3.3,0,0,0,.49,0c.44-.4.44-.39.74.13a2.53,2.53,0,0,1,.13.22c.22.35.18.54.76.35.2-.07.31,0,.36.22s.14.44.18.67a.5.5,0,0,0,.6.46,2.71,2.71,0,0,1,.42,0l-.77,1.05c-.15-.28-.27-.48-.37-.69a.36.36,0,0,0-.54-.21c-.29.15-.44,0-.55-.24a5,5,0,0,0-.28-.57c-.14-.28-.23-.3-.48-.12-.43.31-.43.31-.75-.13s-.34-.46-.85-.19l-1,.53-.12,0A.88.88,0,0,0,386.22,33.41Zm-6.62,1c.14-.83,0-.71.79-.57a12.26,12.26,0,0,0,3.25.33l.08.09c-.09.1-.15.26-.25.29a5.72,5.72,0,0,1-3.63.26A.31.31,0,0,1,379.6,34.43Zm-.45,1.75c.09-.23.11-.56.28-.68s.47,0,.71,0a8.47,8.47,0,0,0,3-.36l.23,0,.08.08c-.09.12-.15.28-.27.35a7.12,7.12,0,0,1-2.81,1.06,4.46,4.46,0,0,1-1-.06C379.11,36.52,379.07,36.38,379.15,36.18Zm-1,1.79a.23.23,0,0,1-.07-.19,1.36,1.36,0,0,1,.76-.57,7.17,7.17,0,0,0,4-1l.09,0,.06,0,0,0a3.76,3.76,0,0,1-2.39,2.57A3,3,0,0,1,378.15,38Zm3.23,9.64a6.29,6.29,0,0,1-1-.34.32.32,0,0,1-.09-.3c.18-.51.37-1,.58-1.52a.43.43,0,0,1,.26-.19s.16.07.16.12c.1.69.18,1.38.27,2.16C381.54,47.55,381.44,47.63,381.38,47.61Zm7.73,9.79-2.29,3.06-.14.11c-1-.84-1.76-4.28-1.12-5.51l.16.08A14.4,14.4,0,0,0,389,57C389.3,57.09,389.32,57.12,389.11,57.4Zm.78-1.19a6.82,6.82,0,0,1-4.64-2.9,16.7,16.7,0,0,1-2.92-6.15,22.29,22.29,0,0,1-.31-2.44c0-.12,0-.25,0-.43l-.29.16a1,1,0,0,1-1.47-.22,3.47,3.47,0,0,1-.72-1.84c-.1-.88-.11-1.78-.16-2.67,0-.26.08-.33.35-.26a2.51,2.51,0,0,0,2.27-.24,3.58,3.58,0,0,0,1.07-1.31,23,23,0,0,0,1.47-4.17c.12-.42.23-.85.37-1.27,0-.09.17-.22.21-.2.44.18.87.39,1.31.59l0,.08c-.2,0-.4-.06-.59-.07a.91.91,0,0,0-.3.11.81.81,0,0,0,.11.27,7.36,7.36,0,0,0,.62.63.42.42,0,0,1,.11.48,5.15,5.15,0,0,0-.24.76.32.32,0,0,0,.05.27s.18,0,.25,0c.48-.24,1-.48,1.43-.74.21-.12.36-.09.47.11s.09.12.13.18c.36.49.36.49.85.18.15-.1.25-.09.33.08s.2.39.29.6.26.34.52.22.47-.07.58.23a5,5,0,0,0,.3.56c.12.19.26.22.4,0,.36-.48.72-1,1.07-1.45.14-.2.07-.33-.19-.36l-.51,0c-.41,0-.48-.11-.47-.58l.3,0,3.3.35c.23,0,.36.09.35.33,0,0,0,.06,0,.09.06.59.06.59-.51.55a.43.43,0,0,0-.28.09s0,.18,0,.26c.19.35.4.69.6,1s.28.24.43.06a1.05,1.05,0,0,1,1.5-.24c.3.17.4.08.45-.27a1.64,1.64,0,0,0,0-.22c0-.24.13-.26.32-.16l.08,0c.47.24.46.24.84-.12a.37.37,0,0,1,.34,0,5.46,5.46,0,0,1,.55.43c.32.26.38.24.52-.14,0,0,.05-.08.12-.22,0,.21.08.33.09.45a8.93,8.93,0,0,0,.59,2.55A2.6,2.6,0,0,0,402.89,41a.42.42,0,0,1,.19.34,19.72,19.72,0,0,1-.37,2,5.63,5.63,0,0,1-.51,1.22,1.73,1.73,0,0,1-.49.52.67.67,0,0,1-1.06-.18l-.15-.14c0,.16-.07.28-.09.4a24.31,24.31,0,0,1-2.7,7.39A7.59,7.59,0,0,1,394,55.87,7.25,7.25,0,0,1,389.89,56.21Z"/><path class="cls-2" d="M393.57,62.05a.55.55,0,0,1-.16.38A.55.55,0,0,0,393.57,62.05Z"/><path class="cls-2" d="M393.28,61.19a1.9,1.9,0,0,1,.29.84A1.9,1.9,0,0,0,393.28,61.19Z"/><path class="cls-2" d="M381.89,51.34c-.34.46-.72.89-1,1.37C381.17,52.23,381.55,51.8,381.89,51.34Z"/><path class="cls-2" d="M384.08,56.28a12.58,12.58,0,0,1,.73-1.84.4.4,0,0,0,0-.2.4.4,0,0,1,0,.2A12.58,12.58,0,0,0,384.08,56.28Z"/><path class="cls-2" d="M373.35,52.51h0a1.37,1.37,0,0,0,.29,0A1,1,0,0,1,373.35,52.51Z"/><path class="cls-2" d="M379.64,55.85a.83.83,0,0,1,0-.93A.83.83,0,0,0,379.64,55.85Z"/><path class="cls-4" d="M397.71,52.51a24.31,24.31,0,0,0,2.7-7.39c0-.12,0-.24.09-.4l.15.14a.67.67,0,0,0,1.06.18,1.73,1.73,0,0,0,.49-.52,5.63,5.63,0,0,0,.51-1.22,19.72,19.72,0,0,0,.37-2,.42.42,0,0,0-.19-.34,2.6,2.6,0,0,1-1.65-1.66,8.93,8.93,0,0,1-.59-2.55c0-.12,0-.24-.09-.45-.07.14-.1.18-.12.22-.14.38-.2.4-.52.14a5.46,5.46,0,0,0-.55-.43.37.37,0,0,0-.34,0c-.38.36-.37.36-.84.12l-.08,0c-.19-.1-.3-.08-.32.16a1.64,1.64,0,0,1,0,.22c0,.35-.15.44-.45.27a1.05,1.05,0,0,0-1.5.24c-.15.18-.31.14-.43-.06s-.41-.69-.6-1c-.05-.08-.08-.22,0-.26a.43.43,0,0,1,.28-.09c.57,0,.57,0,.51-.55,0,0,0-.06,0-.09,0-.24-.12-.31-.35-.33l-3.3-.35-.3,0c0,.47.06.56.47.58l.51,0c.26,0,.33.16.19.36-.35.49-.71,1-1.07,1.45-.14.19-.28.16-.4,0a5,5,0,0,1-.3-.56c-.11-.3-.29-.38-.58-.23s-.42,0-.52-.22-.2-.4-.29-.6-.18-.18-.33-.08c-.49.31-.49.31-.85-.18,0-.06-.09-.11-.13-.18s-.26-.23-.47-.11c-.47.26-.95.5-1.43.74-.07,0-.22.06-.25,0a.32.32,0,0,1-.05-.27,5.15,5.15,0,0,1,.24-.76.42.42,0,0,0-.11-.48,7.36,7.36,0,0,1-.62-.63.81.81,0,0,1-.11-.27.91.91,0,0,1,.3-.11c.19,0,.39.05.59.07l0-.08c-.44-.2-.87-.41-1.31-.59,0,0-.18.11-.21.2-.14.42-.25.85-.37,1.27a23,23,0,0,1-1.47,4.17A3.58,3.58,0,0,1,382,39.22a2.51,2.51,0,0,1-2.27.24c-.27-.07-.36,0-.35.26.05.89.06,1.79.16,2.67a3.47,3.47,0,0,0,.72,1.84,1,1,0,0,0,1.47.22l.29-.16c0,.18,0,.31,0,.43a22.29,22.29,0,0,0,.31,2.44,16.7,16.7,0,0,0,2.92,6.15,6.82,6.82,0,0,0,4.64,2.9,7.25,7.25,0,0,0,4.07-.34A7.59,7.59,0,0,0,397.71,52.51Zm3.75-9.1a.66.66,0,0,0,.18-1.16s-.08-.12-.07-.16a8.29,8.29,0,0,1,.21-.86c0-.06.13-.1.2-.15s.09.16.07.22a1.13,1.13,0,0,0,.22,1,.92.92,0,0,1,0,.71,1.59,1.59,0,0,1-1.1,1A.5.5,0,0,1,401.46,43.41Zm-1-4.81a.19.19,0,0,1,.14.08.18.18,0,0,1-.07.15l-1.14.38-.07-.17C399.74,38.89,400.11,38.74,400.5,38.6Zm-1.09.75,1.13.5a.2.2,0,0,1,0,.13s-.14.1-.18.08l-1.08-.53Zm-18.31,3c.3.23.31.54.32.92a2.88,2.88,0,0,1-1-1.5.62.62,0,0,1,.3-.72.51.51,0,0,0,.25-.57l0-.42.1,0a2.3,2.3,0,0,1,.35,1.11s-.1.15-.18.18A.57.57,0,0,0,381.1,42.38Zm16-1.74a1.87,1.87,0,0,1-1.65-1.44c.51.35.89.88,1.56,1a3.61,3.61,0,0,0,1.83-.46A2.16,2.16,0,0,1,397.15,40.64Zm-1.39-1.86a1.67,1.67,0,0,1,2.58.27l-.54-.22c-.13,0-.22-.06-.3.11a.58.58,0,0,1-1,.16.62.62,0,0,0-.61-.28A.68.68,0,0,1,395.76,38.78Zm1.77-1.2c.78.2,1.56.94,1.53,1.53a1.81,1.81,0,0,1-.32-.27c-.85-1-1.59-1.28-3.14-.59a1.34,1.34,0,0,1-.29.1A2,2,0,0,1,397.53,37.58Zm-3.26,1.1c.1-.41.2-.84.76-1a8.84,8.84,0,0,0-.37,1.23,8.51,8.51,0,0,0,0,1.24A1.32,1.32,0,0,1,394.27,38.68ZM392,37.22a1.1,1.1,0,0,1,.56.82,1.5,1.5,0,0,1-.62,1.33A3.58,3.58,0,0,0,392,37.22Zm-.33,5.22a.62.62,0,0,1,.33.39c.15.53.43.82.89.83a.88.88,0,0,0,.9-.61c.21-.46.41-.5.72-.12.13.15.27.28.49.17a.4.4,0,0,0,.19-.51,1.06,1.06,0,0,1,0-.19c.81.51.84,3.74,0,4.67a10.64,10.64,0,0,0,.18-1.3c0-.73,0-1.45,0-2.18,0-.18-.06-.25-.27-.21s-.6,0-.9,0a.54.54,0,0,0-.33.2,1.2,1.2,0,0,1-2-.18c-.16-.3-.45-.3-.72-.34a2.61,2.61,0,0,1-.57-.1c-.22-.09-.24.06-.27.19-.23.74-.46,1.48-.68,2.23a7.06,7.06,0,0,1-.34,1,1.67,1.67,0,0,1-.05-.31A6.71,6.71,0,0,1,390,42.8l.44-.79c.08-.12.18-.22.27-.33l.07,0c-.07.15-.16.3-.23.46s-.12.47.13.62.38,0,.54-.2S391.52,42.39,391.63,42.44Zm-2.21,5.81c.06-.09.09-.18.15-.22a5.42,5.42,0,0,0,1.63-2.29,4.41,4.41,0,0,1,.46-.82c.21-.3.37-.27.56,0s.3.34.59.05.57-.26.65.16c.14.7.22,1.41.33,2.12,0,.27.07.54.1.81a1.47,1.47,0,0,0,.45,1,.91.91,0,0,1,.15.23v.1c-.62-.32-.77.17-1,.51-.3.53-.57,1.08-.85,1.62a1.12,1.12,0,0,1-1.13.76,1.37,1.37,0,0,1-1.26-1A5.9,5.9,0,0,1,390,48.9C390,48.3,390.05,48.3,389.42,48.25Zm1.22-9.86a.61.61,0,0,0-.67,0,.59.59,0,0,1-.86-.48c0-.23-.1-.27-.28-.26h-.59c.73-.7,1.77-.37,2.62.78A.9.9,0,0,1,390.64,38.39Zm-.49-1.63a1.64,1.64,0,0,1,1.09,1.47,1,1,0,0,1-.18-.09c-.09-.08-.16-.17-.24-.25a2.38,2.38,0,0,0-2.92-.74l-.29.08A2.15,2.15,0,0,1,390.15,36.76Zm-2.29,2a2.2,2.2,0,0,0,1.57.57,3.29,3.29,0,0,0,.84-.23,1.07,1.07,0,0,1,.41-.09,2.17,2.17,0,0,1-1.65.73,2.38,2.38,0,0,1-1.78-1.44C387.45,38.41,387.67,38.56,387.86,38.72Zm-2.22-2.11a4.19,4.19,0,0,1,1.12.61l-.07.14c-.39-.18-.78-.35-1.16-.54,0,0-.06-.11,0-.13S385.6,36.6,385.64,36.61Zm-.31,1.3,1.33-.42,0,.11C386.39,37.92,385.58,38.16,385.33,37.91Zm3.75,16.62a5.52,5.52,0,0,1-1.9-2.43c-.22-.5-.38-1-.56-1.54,0,0,0-.08,0-.22a2.4,2.4,0,0,1,.29.34c.28.48.55,1,.83,1.46a5.57,5.57,0,0,0,3,2.56,3.27,3.27,0,0,0,3.59-.76,18.82,18.82,0,0,0,1.24-1.44l.26-.31c0,.11,0,.15,0,.17a4.35,4.35,0,0,1-2.72,3A4.58,4.58,0,0,1,389.08,54.53Z"/><path class="cls-1" d="M380.12,33.16c.32.06.63.17.95.22.75.14,1.49.27,2.24.36.48,0,.52,0,.62-.47s.08-.65.17-1a.64.64,0,0,0-.26-.73c-.5-.46-1-1-1.43-1.47a3.49,3.49,0,0,1-.41-.64l.11-.11a15.25,15.25,0,0,0,4.95,2.92,1.34,1.34,0,0,1,0-.3c0-.13.05-.25.08-.37a1.27,1.27,0,0,1,.35.17c.33.29.65.6,1,.9s.47.26.76,0,.39-.31.62.09c.13.22.24.45.55.51a35.87,35.87,0,0,0,6.37.76.36.36,0,0,0,.42-.27c.12-.33.26-.35.48-.09a.87.87,0,0,0,1.31.14c.07-.06.24-.11.26-.07.25.3.55.17.82.08.88-.32,1.75-.67,2.62-1l.46-.14.05.09a16.17,16.17,0,0,1-1.94,1.42l.61.25a11.09,11.09,0,0,0,5.69.81,4.2,4.2,0,0,0,3-1.57,2.59,2.59,0,0,0,.19-.31l0-.08-.73.19,0-.07a1.91,1.91,0,0,0,.24-.32,1.4,1.4,0,0,0,.09-.31,1,1,0,0,0-.3,0c-.4.14-.8.31-1.21.46a1.44,1.44,0,0,1-.36.07l-.05-.09.8-.78-.05-.1c-.15,0-.3,0-.44.09-.51.16-1,.33-1.54.48a3.82,3.82,0,0,1-.59.09l0-.14a2.12,2.12,0,0,1,.35-.23l1.16-.58a1.65,1.65,0,0,0,.29-.3,1.66,1.66,0,0,0-.31-.23,24.78,24.78,0,0,1-5.29-3.26,31.8,31.8,0,0,0-4.9-3.41A14,14,0,0,0,393,23.2a13.26,13.26,0,0,0-5.13.39,8,8,0,0,0-4,2.18A23,23,0,0,0,382,28a14.16,14.16,0,0,0-2.16,4.72C379.81,33,379.86,33.1,380.12,33.16Zm6.58-6a10.28,10.28,0,0,0,4.8,3c1,.31,2,.6,3.06.9a3.37,3.37,0,0,1,.38.19l0,.12a2.26,2.26,0,0,1-.26,0,14.25,14.25,0,0,1-6.31-2.23,7.21,7.21,0,0,1-1.94-1.75,1.29,1.29,0,0,1-.11-.45C386.43,27.06,386.61,27.08,386.7,27.19Zm-1.87,1.32c.43.32.88.62,1.29,1a11.67,11.67,0,0,0,4.44,2.11c.21.06.41.15.7.26-1.65.37-6.4-2.08-6.81-3.51A2.34,2.34,0,0,1,384.83,28.51Z"/><path class="cls-1" d="M385.72,55.14l-.16-.08c-.64,1.23.16,4.67,1.12,5.51l.14-.11,2.29-3.06c.21-.28.19-.31-.14-.44A14.4,14.4,0,0,1,385.72,55.14Z"/><path class="cls-1" d="M393,57.14a1.58,1.58,0,0,0,.16.32c.58.87,1.17,1.75,1.77,2.61a4.64,4.64,0,0,0,.49.5,3.77,3.77,0,0,0,.43-.64A15,15,0,0,0,397,55.46c0-.1,0-.2,0-.39A9,9,0,0,1,393,57.14Z"/><path class="cls-1" d="M386.66,34.83l1-.53c.51-.27.51-.27.85.19s.32.44.75.13c.25-.18.34-.16.48.12a5,5,0,0,1,.28.57c.11.28.26.39.55.24a.36.36,0,0,1,.54.21c.1.21.22.41.37.69l.77-1.05a2.71,2.71,0,0,0-.42,0,.5.5,0,0,1-.6-.46c0-.23-.13-.45-.18-.67s-.16-.29-.36-.22c-.58.19-.54,0-.76-.35a2.53,2.53,0,0,0-.13-.22c-.3-.52-.3-.53-.74-.13a.3.3,0,0,1-.49,0c-.27-.28-.56-.54-.85-.8a1.58,1.58,0,0,0-.26-.19c0,.33.07.56.1.8s-.07.33-.29.31l-.6-.08h-.41l-.07.06a.88.88,0,0,1,.32,1.37Z"/><path class="cls-1" d="M395.42,36.17l-.11,0c.18.66.31.72.79.33a.62.62,0,0,1,.72-.14c.56.26.57.24.66-.37,0-.24.15-.34.39-.22l.39.21a.37.37,0,0,0,.6-.11c.25-.34.29-.33.63,0l.54.42a2.91,2.91,0,0,1,.44-.47,3.66,3.66,0,0,1,.6-.31l-.28-.16c-.4-.18-.4-.19-.29-.62,0-.13,0-.25.06-.37l-.08-.05-.52.45c-.48.43-.5.42-.72-.17l-.13-.27-.12,0-.23.22c-.52.55-.47.53-.91,0-.09-.13-.2-.25-.34-.43-.08.15-.12.24-.16.33l-.27.77c-.12.31-.2.33-.46.15l-.67-.5-.08,0c0,.27,0,.54,0,.8C396,36.18,396,36.18,395.42,36.17Z"/><path class="cls-1" d="M380.64,38.79A3.76,3.76,0,0,0,383,36.22l0,0-.06,0-.09,0a7.17,7.17,0,0,1-4,1,1.36,1.36,0,0,0-.76.57.23.23,0,0,0,.07.19A3,3,0,0,0,380.64,38.79Z"/><path class="cls-1" d="M401.77,37.48l-.27-.2-.12.06a12.07,12.07,0,0,0,.22,1.2,2.23,2.23,0,0,0,3.33,1.52c.6-.28.57-.28.24-.84a1.14,1.14,0,0,0-1.08-.63A3.93,3.93,0,0,1,401.77,37.48Z"/><path class="cls-1" d="M379.34,36.54a4.46,4.46,0,0,0,1,.06,7.12,7.12,0,0,0,2.81-1.06c.12-.07.18-.23.27-.35l-.08-.08-.23,0a8.47,8.47,0,0,1-3,.36c-.24,0-.56-.12-.71,0s-.19.45-.28.68S379.11,36.52,379.34,36.54Z"/><path class="cls-1" d="M379.84,34.83a5.72,5.72,0,0,0,3.63-.26c.1,0,.16-.19.25-.29l-.08-.09a12.26,12.26,0,0,1-3.25-.33c-.76-.14-.65-.26-.79.57A.31.31,0,0,0,379.84,34.83Z"/><path class="cls-1" d="M401,45.8a.9.9,0,0,0-.2.28c-.17.62-.31,1.24-.48,1.86-.23.88-.23.89.78.89l.38,0c.27,0,.32-.12.25-.39-.2-.76-.35-1.54-.54-2.3A.84.84,0,0,0,401,45.8Z"/><path class="cls-1" d="M401.76,36.29a3.28,3.28,0,0,0-.31-.18c-.06.44,0,.76.33,1a6.34,6.34,0,0,0,1,.61,7.8,7.8,0,0,0,1.36.37.33.33,0,0,0,.29-.1c.11-.17-.2-.7-.41-.74A6.19,6.19,0,0,1,401.76,36.29Z"/><path class="cls-1" d="M403.88,35.7,401.56,35c-.06,0-.14,0-.22,0s.05.18.1.2c.33.13.4.3,0,.57a7.28,7.28,0,0,0,2.46.75.26.26,0,0,0,.19-.06A.72.72,0,0,0,403.88,35.7Z"/><path class="cls-1" d="M381.15,45.26a.43.43,0,0,0-.26.19c-.21.5-.4,1-.58,1.52a.32.32,0,0,0,.09.3,6.29,6.29,0,0,0,1,.34c.06,0,.16-.06.2-.07-.09-.78-.17-1.47-.27-2.16C381.31,45.33,381.18,45.24,381.15,45.26Z"/><path class="cls-2" d="M390.27,51.33a1.37,1.37,0,0,0,1.26,1,1.12,1.12,0,0,0,1.13-.76c.28-.54.55-1.09.85-1.62.2-.34.35-.83,1-.51v-.1a.91.91,0,0,0-.15-.23,1.47,1.47,0,0,1-.45-1c0-.27-.06-.54-.1-.81-.11-.71-.19-1.42-.33-2.12-.08-.42-.34-.47-.65-.16s-.39.28-.59-.05-.35-.35-.56,0a4.41,4.41,0,0,0-.46.82A5.42,5.42,0,0,1,389.57,48c-.06,0-.09.13-.15.22.63,0,.62,0,.56.65A5.9,5.9,0,0,0,390.27,51.33Zm1.27-5.23a.54.54,0,0,1,.6-.23.63.63,0,0,0,.43-.12c.32-.22.42-.19.48.2,0,.09,0,.19,0,.24,0,.43-.15.55-.64.51-.16,0-.33,0-.5,0s-.42-.08-.63-.12A4.44,4.44,0,0,1,391.54,46.1Zm-.91,4.07c.57.17,1.14.35,1.7.55a.31.31,0,0,1,.07.27.86.86,0,0,1-.73.51,1.4,1.4,0,0,1-1.24-1.18C390.43,50.26,390.58,50.15,390.63,50.17Z"/><path class="cls-2" d="M395.87,52.36s0-.06,0-.17l-.26.31a18.82,18.82,0,0,1-1.24,1.44,3.27,3.27,0,0,1-3.59.76,5.57,5.57,0,0,1-3-2.56c-.28-.49-.55-1-.83-1.46a2.4,2.4,0,0,0-.29-.34c0,.14,0,.18,0,.22.18.51.34,1,.56,1.54a5.52,5.52,0,0,0,1.9,2.43,4.58,4.58,0,0,0,4.07.78A4.35,4.35,0,0,0,395.87,52.36Z"/><path class="cls-2" d="M390.67,42.81c-.25-.15-.21-.39-.13-.62s.16-.31.23-.46l-.07,0c-.09.11-.19.21-.27.33l-.44.79a6.71,6.71,0,0,0-.82,3.31,1.67,1.67,0,0,0,.05.31,7.06,7.06,0,0,0,.34-1c.22-.75.45-1.49.68-2.23,0-.13.05-.28.27-.19a2.61,2.61,0,0,0,.57.1c.27,0,.56,0,.72.34a1.2,1.2,0,0,0,2,.18.54.54,0,0,1,.33-.2c.3,0,.6,0,.9,0s.27,0,.27.21c0,.73,0,1.45,0,2.18a10.64,10.64,0,0,1-.18,1.3c.8-.93.77-4.16,0-4.67a1.06,1.06,0,0,0,0,.19.4.4,0,0,1-.19.51c-.22.11-.36,0-.49-.17-.31-.38-.51-.34-.72.12a.88.88,0,0,1-.9.61c-.46,0-.74-.3-.89-.83a.62.62,0,0,0-.33-.39c-.11,0-.32.07-.42.17S390.91,42.94,390.67,42.81Z"/><path class="cls-2" d="M390.82,37.89c.08.08.15.17.24.25a1,1,0,0,0,.18.09,1.64,1.64,0,0,0-1.09-1.47,2.15,2.15,0,0,0-2.54.47l.29-.08A2.38,2.38,0,0,1,390.82,37.89Z"/><path class="cls-2" d="M398.74,38.84a1.81,1.81,0,0,0,.32.27c0-.59-.75-1.33-1.53-1.53a2,2,0,0,0-2.22.77,1.34,1.34,0,0,0,.29-.1C397.15,37.56,397.89,37.88,398.74,38.84Z"/><path class="cls-2" d="M388.24,37.66h.59c.18,0,.27,0,.28.26a.59.59,0,0,0,.86.48.61.61,0,0,1,.67,0,.9.9,0,0,0,.22,0C390,37.29,389,37,388.24,37.66Z"/><path class="cls-2" d="M396.54,39.1a.58.58,0,0,0,1-.16c.08-.17.17-.16.3-.11l.54.22a1.67,1.67,0,0,0-2.58-.27.68.68,0,0,0,.17,0A.62.62,0,0,1,396.54,39.1Z"/><path class="cls-2" d="M397.06,40.19c-.67-.11-1.05-.64-1.56-1a1.87,1.87,0,0,0,1.65,1.44,2.16,2.16,0,0,0,1.74-.91A3.61,3.61,0,0,1,397.06,40.19Z"/><path class="cls-2" d="M402.31,43a.92.92,0,0,0,0-.71,1.13,1.13,0,0,1-.22-1c0-.06,0-.14-.07-.22s-.18.09-.2.15a8.29,8.29,0,0,0-.21.86s0,.11.07.16a.66.66,0,0,1-.18,1.16.5.5,0,0,0-.25.57A1.59,1.59,0,0,0,402.31,43Z"/><path class="cls-2" d="M381.25,41.35c.08,0,.18-.13.18-.18a2.3,2.3,0,0,0-.35-1.11l-.1,0,0,.42a.51.51,0,0,1-.25.57.62.62,0,0,0-.3.72,2.88,2.88,0,0,0,1,1.5c0-.38,0-.69-.32-.92A.57.57,0,0,1,381.25,41.35Z"/><path class="cls-2" d="M389,39.7a2.17,2.17,0,0,0,1.65-.73,1.07,1.07,0,0,0-.41.09,3.29,3.29,0,0,1-.84.23,2.2,2.2,0,0,1-1.57-.57c-.19-.16-.41-.31-.61-.46A2.38,2.38,0,0,0,389,39.7Z"/><path class="cls-2" d="M394.66,38.91a8.84,8.84,0,0,1,.37-1.23c-.56.16-.66.59-.76,1a1.32,1.32,0,0,0,.37,1.47A8.51,8.51,0,0,1,394.66,38.91Z"/><path class="cls-2" d="M392.52,38a1.1,1.1,0,0,0-.56-.82,3.58,3.58,0,0,1-.06,2.15A1.5,1.5,0,0,0,392.52,38Z"/><path class="cls-2" d="M386.69,37.36l.07-.14a4.19,4.19,0,0,0-1.12-.61s-.11,0-.15.08,0,.12,0,.13C385.91,37,386.3,37.18,386.69,37.36Z"/><path class="cls-2" d="M386.66,37.49l-1.33.42c.25.25,1.06,0,1.37-.31Z"/><path class="cls-2" d="M400.59,40a.2.2,0,0,0,0-.13l-1.13-.5-.08.18,1.08.53S400.54,40,400.59,40Z"/><path class="cls-2" d="M400.57,38.83a.18.18,0,0,0,.07-.15.19.19,0,0,0-.14-.08c-.39.14-.76.29-1.14.44l.07.17Z"/><path class="cls-2" d="M388.34,29.2a14.25,14.25,0,0,0,6.31,2.23,2.26,2.26,0,0,0,.26,0l0-.12a3.37,3.37,0,0,0-.38-.19c-1-.3-2-.59-3.06-.9a10.28,10.28,0,0,1-4.8-3c-.09-.11-.27-.13-.41-.19a1.29,1.29,0,0,0,.11.45A7.21,7.21,0,0,0,388.34,29.2Z"/><path class="cls-2" d="M391.26,31.85c-.29-.11-.49-.2-.7-.26a11.67,11.67,0,0,1-4.44-2.11c-.41-.35-.86-.65-1.29-1a2.34,2.34,0,0,0-.38-.17C384.86,29.77,389.61,32.22,391.26,31.85Z"/><path class="cls-1" d="M391.67,51.5a.86.86,0,0,0,.73-.51.31.31,0,0,0-.07-.27c-.56-.2-1.13-.38-1.7-.55-.05,0-.2.09-.2.15A1.4,1.4,0,0,0,391.67,51.5Z"/><path class="cls-1" d="M392.43,46.7c.49,0,.66-.08.64-.51,0,0,0-.15,0-.24-.06-.39-.16-.42-.48-.2a.63.63,0,0,1-.43.12.54.54,0,0,0-.6.23,4.44,4.44,0,0,0-.24.49c.21,0,.42.1.63.12S392.27,46.69,392.43,46.7Z"/></svg>